<svg xmlns="http://www.w3.org/2000/svg" width="16" height="16" viewBox="0 0 16 16">
    <g data-name="사각형 4925" style="fill:#17a2ff;stroke:#17a2ff">
        <rect width="16" height="16" rx="2" style="stroke:none"/>
        <rect x=".5" y=".5" width="15" height="15" rx="1.5" style="fill:none"/>
    </g>
    <path d="m36.519 80.03-5.883 5.883-2.162-2.162a.268.268 0 0 0-.38 0l-.633.633a.268.268 0 0 0 0 .38l2.984 2.984a.268.268 0 0 0 .38 0l6.706-6.706a.268.268 0 0 0 0-.38l-.631-.632a.268.268 0 0 0-.381 0z" transform="translate(-24.383 -75.951)" style="fill:#fff;stroke:#fff"/>
</svg>
