<svg xmlns="http://www.w3.org/2000/svg" width="22" height="22" viewBox="0 0 22 22">
    <g data-name="그룹 6481">
        <path data-name="패스 12133" d="M7 6h8.677M7 8.567h8.677m-6.942 6.844h5.206" transform="translate(-.076 .19)" style="stroke-linecap:round;stroke-linejoin:round;fill:none;stroke:#fff;stroke-width:1.5px"/>
        <path data-name="패스 12134" d="M2.8 10.005h-.32a.48.48 0 0 0-.48.48v7.045a.48.48 0 0 0 .48.48h15.05a.48.48 0 0 0 .48-.48v-7.044a.48.48 0 0 0-.48-.48h-.32m-14.41 0V2.48A.48.48 0 0 1 3.281 2H16.73a.48.48 0 0 1 .48.48v7.525m-14.41 0h14.41" transform="translate(1.257 1.257)" style="fill:none;stroke:#fff;stroke-width:1.5px"/>
    </g>
</svg>
