<svg xmlns="http://www.w3.org/2000/svg" width="24" height="24" viewBox="0 0 24 24">
    <path data-name="패스 494" d="M0 0h24v24H0z" style="fill:none"/>
    <g data-name="그룹 2475">
        <path data-name="사각형 697" d="M983.776 567.123v4.352a.481.481 0 0 1-.481.481h-13.253a.482.482 0 0 1-.482-.482v-13.41a.482.482 0 0 1 .482-.482h5.09" transform="translate(-965.208 -552.043)" style="stroke-linecap:round;stroke-miterlimit:10;stroke:#17a2ff;stroke-width:1.5px;fill:none"/>
        <path data-name="패스 903" d="m979.025 565.989-4.834 1 .948-4.89 6.5-6.5a1.155 1.155 0 0 1 1.634 0l2.252 2.253a1.154 1.154 0 0 1 0 1.633z" transform="translate(-964.989 -552.027)" style="stroke-linejoin:round;stroke:#17a2ff;stroke-width:1.5px;fill:none"/>
    </g>
</svg>
