<svg xmlns="http://www.w3.org/2000/svg" width="22" height="22" viewBox="0 0 22 22">
    <g data-name="그룹 2496">
        <g data-name="그룹 2494">
            <path data-name="패스 640" d="M2766.175 204.18h-9.015a.964.964 0 0 0-.955.974v17.053a.964.964 0 0 0 .955.974h13.053a.964.964 0 0 0 .954-.974v-12.93z" transform="translate(-2752.311 -202.18)" style="stroke-linejoin:round;stroke-linecap:round;stroke-width:1.5px;fill:none;stroke:#fff"/>
            <path data-name="패스 641" d="M2766.508 209.03h3.923l-4.849-4.85v3.92a.927.927 0 0 0 .926.93z" transform="translate(-2751.575 -202.18)" style="stroke-linejoin:round;stroke-linecap:round;stroke-width:1.5px;fill:none;stroke:#fff"/>
        </g>
        <g data-name="그룹 2495">
            <path data-name="패스 332" d="M2767.825 214.815a4.466 4.466 0 1 1-4.466-4.467 4.466 4.466 0 0 1 4.466 4.467z" transform="translate(-2751.999 -202.244)" style="stroke-miterlimit:10;stroke-linecap:round;stroke-width:1.5px;fill:none;stroke:#fff"/>
            <path data-name="패스 642" d="M2763.24 210.685v4.109l3.656-1.915" transform="translate(-2751.905 -202.233)" style="stroke-linejoin:round;stroke-linecap:round;stroke-width:1.5px;fill:none;stroke:#fff"/>
        </g>
    </g>
</svg>
