<svg xmlns="http://www.w3.org/2000/svg" width="15" height="15" viewBox="0 0 15 15">
    <g data-name="타원 28" style="fill:#ffcc26;stroke:#ffe14d;stroke-width:1.4px">
        <circle cx="7.5" cy="7.5" r="7.5" style="stroke:none"/>
        <circle cx="7.5" cy="7.5" r="6.8" style="fill:none"/>
    </g>
    <path data-name="패스 11396" d="M3.385-3.951a1 1 0 0 0 .781-.324 1.267 1.267 0 0 0 .289-.876 1.283 1.283 0 0 0-.289-.88.989.989 0 0 0-.781-.328H1.814v2.408zM.64-7.36h2.788a2.29 2.29 0 0 1 1.139.28 2 2 0 0 1 .781.781 2.308 2.308 0 0 1 .28 1.148A2.308 2.308 0 0 1 5.348-4a2 2 0 0 1-.781.781 2.29 2.29 0 0 1-1.139.28H1.814v2.052H.64z" transform="translate(4.88 11.892)" style="fill:#fff"/>
</svg>
