<svg xmlns="http://www.w3.org/2000/svg" width="22" height="22" viewBox="0 0 22 22">
    <g data-name="그룹 6480">
        <path data-name="패스 12131" d="M17.264 5.108a.5.5 0 0 0-.146-.352l-2.61-2.61A.5.5 0 0 0 14.157 2H4.5a.5.5 0 0 0-.5.5v15.583a.5.5 0 0 0 .5.5h12.6M7.316 9.674h6.632M7.316 6.358h3.316M7.316 12.99H9.8" transform="translate(.383 .612)" style="stroke-linejoin:round;fill:none;stroke:#17a2ff;stroke-linecap:round;stroke-width:1.5px"/>
        <path data-name="패스 12132" d="M15.8 2v2.819a.5.5 0 0 0 .5.5h2.819" transform="translate(-1.465 .612)" style="stroke-linejoin:round;fill:none;stroke:#17a2ff;stroke-linecap:round;stroke-width:1.5px"/>
        <path data-name="선 351" transform="translate(17.714 5.736)" style="fill:none;stroke:#17a2ff;stroke-linecap:round;stroke-width:1.5px" d="M0 0v13.435"/>
    </g>
</svg>
