<svg xmlns="http://www.w3.org/2000/svg" width="70" height="70" viewBox="0 0 70 70">
    <g data-name="icon_total pageviews" transform="translate(-345 -302)">
        <circle data-name="타원 323" cx="35" cy="35" r="35" transform="translate(345 302)" style="fill:#fff"/>
        <g data-name="그룹 7925" transform="translate(364 323)">
            <path data-name="빼기 5" d="M13.433 20.66H2a2 2 0 0 1-2-2V2a2 2 0 0 1 2-2h20.595a2 2 0 0 1 2 2v11.35a10.629 10.629 0 0 0-1.317-.082 10.258 10.258 0 0 0-9.763 6.9 1.558 1.558 0 0 0-.082.494z" style="fill:#5a6ee7"/>
            <circle data-name="타원 326" cx="1.176" cy="1.176" r="1.176" transform="translate(2.435 2.331)" style="fill:#fff"/>
            <circle data-name="타원 327" cx="1.176" cy="1.176" r="1.176" transform="translate(6.198 2.331)" style="fill:#fff"/>
            <circle data-name="타원 328" cx="1.176" cy="1.176" r="1.176" transform="translate(9.961 2.331)" style="fill:#fff"/>
            <g data-name="그룹 7922" style="opacity:.6">
                <path data-name="패스 12903" d="M9.376 11.626a2.251 2.251 0 1 0-2.251-2.25 2.251 2.251 0 0 0 2.251 2.25z" transform="translate(14.727 12.269)" style="fill:#5a6ee7"/>
                <path data-name="패스 12904" d="M1.044 8.743a8.443 8.443 0 0 1 16.019-.005 1.325 1.325 0 0 1 0 .835 8.443 8.443 0 0 1-16.018.005 1.322 1.322 0 0 1 0-.835zm11.948.415a3.939 3.939 0 1 1-3.938-3.939 3.939 3.939 0 0 1 3.938 3.939z" transform="translate(15.049 12.486)" style="fill-rule:evenodd;fill:#5a6ee7"/>
            </g>
            <g data-name="그룹 7926" transform="translate(3.501 8.751)">
                <rect data-name="사각형 6451" width="17.5" height="2" rx="1" style="fill:#fff"/>
                <rect data-name="사각형 6452" width="17.5" height="2" rx="1" transform="translate(0 4.125)" style="fill:#fff"/>
            </g>
        </g>
    </g>
</svg>
