<svg xmlns="http://www.w3.org/2000/svg" width="25" height="25" viewBox="0 0 25 25">
    <g transform="translate(-414 -374)">
        <rect data-name="사각형 973" width="25" height="25" rx="4" transform="translate(414 374)" style="fill:#17a2ff"/>
        <path data-name="패스 12902" d="M8.027 3.9 3.6 8.322a.552.552 0 0 1-.78 0L.351 5.84a.552.552 0 0 1 0-.78l.69-.69a.552.552 0 0 1 .778 0l1.4 1.362L6.56 2.439a.552.552 0 0 1 .779 0l.688.674a.552.552 0 0 1 0 .783z" transform="translate(422.81 380.723)" style="fill:#17a2ff"/>
        <path d="M6.479 4.423A3.11 3.11 0 0 0 3.16 7.269a2.794 2.794 0 0 0 1.618 2.444 4.668 4.668 0 0 0-.358 1.444A4.292 4.292 0 0 1 1.5 7.269C1.5 4.911 3.729 3 6.479 3H9.8c2.75 0 4.979 1.911 4.979 4.269s-2.232 4.269-4.979 4.269H8.553a1.707 1.707 0 0 1 .83-1.423H9.8a3.11 3.11 0 0 0 3.319-2.846A3.11 3.11 0 0 0 9.8 4.423zm10.787 7.115a2.794 2.794 0 0 0-1.618-2.444 4.67 4.67 0 0 0 .358-1.444 4.292 4.292 0 0 1 2.92 3.888c0 2.358-2.229 4.269-4.979 4.269h-3.319c-2.75 0-4.979-1.911-4.979-4.269s2.229-4.269 4.979-4.269h1.245a1.707 1.707 0 0 1-.83 1.423h-.415a3.11 3.11 0 0 0-3.319 2.846 3.11 3.11 0 0 0 3.319 2.846h3.319a3.11 3.11 0 0 0 3.319-2.846z" style="fill:#fff;stroke:#fff;stroke-width:.5px;fill-rule:evenodd" transform="translate(416.287 377)"/>
    </g>
</svg>
