<svg xmlns="http://www.w3.org/2000/svg" width="22" height="22" viewBox="0 0 22 22">
    <path data-name="icon_file" d="M9.8 10.965a4.676 4.676 0 0 1-1.429 3.454A4.739 4.739 0 0 1 4.9 15.833a4.761 4.761 0 0 1-3.47-1.415A4.666 4.666 0 0 1 0 10.965V3.444A3.3 3.3 0 0 1 1.019 1a3.359 3.359 0 0 1 2.445-1 3.359 3.359 0 0 1 2.444 1 3.3 3.3 0 0 1 1.019 2.444v7.125a1.943 1.943 0 0 1-.594 1.425 1.955 1.955 0 0 1-1.435.594A1.966 1.966 0 0 1 3.464 12a1.938 1.938 0 0 1-.594-1.432V3.246h1.187v7.323a.8.8 0 0 0 .247.584.825.825 0 0 0 .606.247.783.783 0 0 0 .594-.247.82.82 0 0 0 .235-.584V3.444a2.163 2.163 0 0 0-.663-1.6 2.217 2.217 0 0 0-1.617-.653 2.2 2.2 0 0 0-1.613.654 2.171 2.171 0 0 0-.659 1.6v7.521a3.522 3.522 0 0 0 1.088 2.613 3.619 3.619 0 0 0 2.633 1.069 3.587 3.587 0 0 0 2.622-1.071 3.536 3.536 0 0 0 1.079-2.613V3.246H9.8v7.719z" transform="rotate(35.02 2.676 19.59)" style="fill:#555"/>
</svg>
