<svg xmlns="http://www.w3.org/2000/svg" width="25" height="25" viewBox="0 0 25 25">
    <g transform="translate(-414 -374)">
        <rect data-name="사각형 973" width="25" height="25" rx="4" transform="translate(414 374)" style="fill:#17a2ff"/>
        <path d="m13.945 5.775-1.156-.147a5.81 5.81 0 0 0-.35-.845l.714-.919a.914.914 0 0 0-.075-1.217l-.968-.967a.916.916 0 0 0-1.22-.078l-.918.714a5.789 5.789 0 0 0-.845-.35L8.979.811A.921.921 0 0 0 8.066 0H6.689a.921.921 0 0 0-.914.81l-.147 1.155a5.722 5.722 0 0 0-.845.35L3.864 1.6a.915.915 0 0 0-1.217.075l-.968.968A.917.917 0 0 0 1.6 3.865l.714.918a5.742 5.742 0 0 0-.35.845l-1.153.147A.921.921 0 0 0 0 6.689v1.377a.921.921 0 0 0 .81.914l1.156.147a5.81 5.81 0 0 0 .35.845l-.716.918a.914.914 0 0 0 .075 1.217l.968.968a.917.917 0 0 0 1.22.077l.918-.714a5.676 5.676 0 0 0 .845.35l.147 1.153a.921.921 0 0 0 .914.813h1.379a.921.921 0 0 0 .914-.81l.147-1.156a5.81 5.81 0 0 0 .845-.35l.919.714a.914.914 0 0 0 1.217-.075l.968-.968a.916.916 0 0 0 .078-1.22l-.714-.918a5.676 5.676 0 0 0 .35-.845l1.153-.147a.921.921 0 0 0 .811-.914V6.689a.92.92 0 0 0-.809-.914zm-6.568 4.676a3.074 3.074 0 1 1 3.074-3.074 3.077 3.077 0 0 1-3.074 3.074z" transform="translate(419.123 379.123)" style="fill:#fff"/>
    </g>
</svg>
