<svg xmlns="http://www.w3.org/2000/svg" width="16" height="16" viewBox="0 0 16 16">
    <g transform="translate(-396 -253)">
        <circle data-name="타원 301" cx="8" cy="8" r="8" transform="translate(396 253)" style="fill:#ddd"/>
        <path data-name="패스 12226" d="M6.569 6.693a.24.24 0 0 0 .244.25h.837a.282.282 0 0 0 .27-.254A1.267 1.267 0 0 1 9.281 5.54a1.178 1.178 0 0 1 1.333 1.185c0 .644-.379.94-.979 1.39A2.31 2.31 0 0 0 8.45 10.13v.22a.254.254 0 0 0 .254.249h.822a.254.254 0 0 0 .254-.254v-.105c0-.728.277-.94 1.024-1.507a2.475 2.475 0 0 0 1.262-2.085c0-1.532-1.294-2.273-2.711-2.273a2.494 2.494 0 0 0-2.786 2.318m1.579 5.845a.955.955 0 0 0 1.024.94.951.951 0 1 0 0-1.893.954.954 0 0 0-1.023.953" transform="translate(394.432 252.625)" style="fill:#333"/>
    </g>
</svg>
