<svg xmlns="http://www.w3.org/2000/svg" width="70" height="70" viewBox="0 0 70 70">
    <g data-name="icon_adblock ratio" transform="translate(-1135 -302)">
        <circle data-name="타원 324" cx="35" cy="35" r="35" transform="translate(1135 302)" style="fill:#fff"/>
        <g data-name="icon_adblock ratio">
            <path data-name="패스 217" d="m23.162 3.513-4.326 3.461a2.208 2.208 0 0 1 .032.322 2.178 2.178 0 1 1-4.356 0 2.152 2.152 0 0 1 .032-.322l-4.325-3.461a2.047 2.047 0 0 1-1.346.072L4.267 8.191A2.174 2.174 0 1 1 2.17 6.57a2.172 2.172 0 0 1 .557.081l4.606-4.606a2.172 2.172 0 0 1-.081-.557 2.178 2.178 0 0 1 4.356 0 2.153 2.153 0 0 1-.032.322L15.9 5.27a2.11 2.11 0 0 1 1.577 0L21.8 1.81a2.209 2.209 0 0 1-.032-.322 2.194 2.194 0 1 1 1.389 2.025z" transform="translate(1156.884 326.348)" style="opacity:.4"/>
            <path data-name="패스 218" d="M1175.025 340.178h-2.9a.726.726 0 0 0-.726.726v7.26a.726.726 0 0 0 .726.726h2.9a.726.726 0 0 0 .726-.726v-7.26a.726.726 0 0 0-.726-.726zm7.26-5.808h-2.9a.726.726 0 0 0-.726.726v13.068a.726.726 0 0 0 .726.726h2.9a.726.726 0 0 0 .726-.726v-13.068a.726.726 0 0 0-.726-.726zm-14.52 0h-2.9a.726.726 0 0 0-.726.726v13.068a.726.726 0 0 0 .726.726h2.9a.726.726 0 0 0 .726-.726v-13.068a.726.726 0 0 0-.726-.726zm-7.26 7.26h-2.904a.726.726 0 0 0-.726.726v5.808a.726.726 0 0 0 .726.726h2.9a.726.726 0 0 0 .726-.726v-5.808a.726.726 0 0 0-.722-.726z"/>
        </g>
    </g>
</svg>
