<svg xmlns="http://www.w3.org/2000/svg" width="25" height="25" viewBox="0 0 25 25">
    <g transform="translate(-414 -374)">
        <rect data-name="사각형 973" width="25" height="25" rx="4" transform="translate(414 374)" style="fill:#17a2ff"/>
        <path data-name="패스 12229" d="m6.558 12.386-.671 2.626a.506.506 0 0 1-.182.307.521.521 0 0 1-.335.115.544.544 0 0 1-.441-.211.5.5 0 0 1-.1-.479l.594-2.357H3.108a.562.562 0 0 1-.45-.22.508.508 0 0 1-.105-.489.53.53 0 0 1 .192-.316.559.559 0 0 1 .364-.125h2.606l.977-3.872H4.373a.562.562 0 0 1-.45-.22.508.508 0 0 1-.105-.489.53.53 0 0 1 .192-.316.559.559 0 0 1 .364-.125H6.98l.652-2.626a.506.506 0 0 1 .182-.307.521.521 0 0 1 .335-.115.527.527 0 0 1 .431.2.533.533 0 0 1 .105.47l-.574 2.377H12l.652-2.626a.506.506 0 0 1 .182-.307.521.521 0 0 1 .335-.115.527.527 0 0 1 .431.2.533.533 0 0 1 .105.47l-.575 2.377h2.319a.562.562 0 0 1 .45.22.508.508 0 0 1 .105.489.53.53 0 0 1-.192.316.559.559 0 0 1-.364.125h-2.603l-.977 3.872h2.319a.562.562 0 0 1 .45.22.508.508 0 0 1 .105.489.53.53 0 0 1-.192.316.559.559 0 0 1-.364.125H11.58l-.671 2.626a.506.506 0 0 1-.182.307.521.521 0 0 1-.335.115.544.544 0 0 1-.441-.211.5.5 0 0 1-.1-.479l.594-2.357H6.558zm.287-1.15h3.891l.977-3.872h-3.89l-.977 3.872z" transform="translate(417 377)" style="fill:#fff;stroke:#fff"/>
    </g>
</svg>
