<svg xmlns="http://www.w3.org/2000/svg" width="25" height="25" viewBox="0 0 25 25">
    <g transform="translate(-414 -374)">
        <rect data-name="사각형 973" width="25" height="25" rx="4" transform="translate(414 374)" style="fill:#17a2ff"/>
        <path data-name="패스 12901" d="M15.19 2.637v8.077a1.731 1.731 0 0 1-1.731 1.731H1.921A1.731 1.731 0 0 1 .19 10.714V2.637A1.731 1.731 0 0 1 1.921.906h11.538a1.731 1.731 0 0 1 1.731 1.731zM10 13.6H5.382a.577.577 0 0 0 0 1.154H10a.577.577 0 1 0 0-1.154z" transform="translate(418.81 379.305)" style="fill:#fff"/>
        <path data-name="패스 12902" d="M8.027 3.9 3.6 8.322a.552.552 0 0 1-.78 0L.351 5.84a.552.552 0 0 1 0-.78l.69-.69a.552.552 0 0 1 .778 0l1.4 1.362L6.56 2.439a.552.552 0 0 1 .779 0l.688.674a.552.552 0 0 1 0 .783z" transform="translate(422.81 380.723)" style="fill:#17a2ff"/>
    </g>
</svg>
