<svg xmlns="http://www.w3.org/2000/svg" width="70" height="70" viewBox="0 0 70 70">
    <g transform="translate(-1530 -302)">
        <circle data-name="타원 325" cx="35" cy="35" r="35" transform="translate(1530 302)" style="fill:#fff"/>
        <g data-name="icon_proceeds">
            <path data-name="패스 219" d="M142.766 15.965c2.938-.569 4.922-1.625 4.922-2.84v-2.189a12.59 12.59 0 0 1-4.922 1.769zm-.241-4.876c3.076-.554 5.163-1.641 5.163-2.886V6.014c-1.82 1.287-4.948 1.979-8.239 2.143a5.741 5.741 0 0 1 3.076 2.933zm5.163-7.808c0-1.81-4.409-3.281-9.844-3.281S128 1.471 128 3.281s4.409 3.281 9.844 3.281 9.843-1.471 9.843-3.281z" transform="translate(1430.438 323.875)" style="opacity:.4;fill:#ff4959"/>
            <path data-name="패스 220" d="M9.844 168.2c5.435 0 9.844-1.835 9.844-4.1s-4.41-4.1-9.844-4.1S0 161.835 0 164.1s4.409 4.1 9.844 4.1zM0 172.576v2.189c0 1.81 4.409 3.281 9.844 3.281s9.844-1.471 9.844-3.281v-2.189c-2.117 1.492-5.988 2.189-9.844 2.189s-7.727-.697-9.844-2.189zm0-5.376v2.646c0 1.81 4.409 3.281 9.844 3.281s9.844-1.471 9.844-3.281V167.2c-2.117 1.743-5.993 2.646-9.844 2.646S2.117 168.941 0 167.2z" transform="translate(1551.875 172.078)" style="fill:#ff4959"/>
        </g>
    </g>
</svg>
