<svg xmlns="http://www.w3.org/2000/svg" width="55" height="9.561" viewBox="0 0 55 9.561">
    <g data-name="그룹 3">
        <path data-name="패스 5" d="M171.042 1.924H167.1a2.189 2.189 0 0 0-2.126 2.243v7.318h2.212V8.209a.118.118 0 0 1 .117-.119h3.537a.118.118 0 0 1 .117.119v3.276h2.212V4.167a2.189 2.189 0 0 0-2.126-2.243m-.086 2.509v1.292a.118.118 0 0 1-.117.119h-3.54a.118.118 0 0 1-.117-.119V4.433a.118.118 0 0 1 .117-.119h3.537a.118.118 0 0 1 .117.119" transform="translate(-164.973 -1.924)" style="fill:#17a2ff"/>
        <path data-name="패스 6" d="M208.742 1.924h-2.99a1.3 1.3 0 0 0-1.3 1.3v6.965a1.3 1.3 0 0 0 1.3 1.3h2.99a3.9 3.9 0 0 0 3.9-3.892V5.816a3.9 3.9 0 0 0-3.9-3.892m1.524 3.864v1.834a1.533 1.533 0 0 1-1.534 1.529h-1.782a.118.118 0 0 1-.119-.117V4.376a.118.118 0 0 1 .119-.117h1.782a1.533 1.533 0 0 1 1.534 1.529" transform="translate(-194.939 -1.924)" style="fill:#17a2ff"/>
        <path data-name="패스 7" d="M252.123 6.912a1.233 1.233 0 0 0-1.22-1.236h-4.414a.117.117 0 0 1-.117-.117V4.521a.117.117 0 0 1 .117-.117h3.069a.117.117 0 0 1 .117.117v.625h2.448v-.981a2.231 2.231 0 0 0-2.215-2.241h-3.764a2.231 2.231 0 0 0-2.215 2.241v2.749a1.233 1.233 0 0 0 1.156 1.231h4.469a.117.117 0 0 1 .117.117V9.3a.118.118 0 0 1-.117.118h-3.069a.118.118 0 0 1-.117-.118v-.625h-2.439v.569a2.231 2.231 0 0 0 2.215 2.241h3.764a2.231 2.231 0 0 0 2.215-2.241V6.912z" transform="translate(-224.905 -1.924)" style="fill:#050605"/>
        <path data-name="패스 8" d="M288.92 1.924h-3.943a2.189 2.189 0 0 0-2.126 2.243v7.318h2.212V8.209a.118.118 0 0 1 .117-.119h3.537a.118.118 0 0 1 .117.119v3.276h2.212V4.167a2.189 2.189 0 0 0-2.126-2.243m-.086 2.509v1.292a.118.118 0 0 1-.117.119h-3.537a.118.118 0 0 1-.117-.119V4.433a.118.118 0 0 1 .117-.119h3.537a.118.118 0 0 1 .117.119" transform="translate(-254.451 -1.924)" style="fill:#050605"/>
        <path data-name="패스 9" d="M326.41 1.924 324.871 6.5l-1.538-4.58h-2.56l2.938 8.751a1.235 1.235 0 0 0 2.319 0l2.938-8.751z" transform="translate(-283.237 -1.924)" style="fill:#050605"/>
        <path data-name="패스 10" d="M361.735 4.274h5.7v-2.35h-6.912a1.29 1.29 0 0 0-1.283 1.294v6.974a1.29 1.29 0 0 0 1.283 1.294h6.912v-2.35h-5.7a.115.115 0 0 1-.114-.116V7.762h5.2V5.647h-5.2V4.39a.115.115 0 0 1 .114-.116" transform="translate(-312.434 -1.924)" style="fill:#050605"/>
    </g>
</svg>
