<svg xmlns="http://www.w3.org/2000/svg" width="130" height="22.6" viewBox="0 0 130 22.6">
    <g data-name="그룹 3">
        <path data-name="패스 5" d="M179.317 1.924H170a5.175 5.175 0 0 0-5.026 5.3v17.3h5.226V16.78a.279.279 0 0 1 .277-.28h8.359a.279.279 0 0 1 .277.28v7.744h5.228V7.226a5.175 5.175 0 0 0-5.026-5.3m-.2 5.931v3.052a.279.279 0 0 1-.277.28h-8.359a.279.279 0 0 1-.277-.28V7.855a.279.279 0 0 1 .277-.28h8.359a.279.279 0 0 1 .277.28" transform="translate(-164.973 -1.924)" style="fill:#17a2ff"/>
        <path data-name="패스 6" d="M214.594 1.924h-7.067a3.076 3.076 0 0 0-3.077 3.069v16.462a3.076 3.076 0 0 0 3.077 3.069h7.067a9.224 9.224 0 0 0 9.227-9.2v-4.2a9.224 9.224 0 0 0-9.227-9.2m3.6 9.133v4.334A3.624 3.624 0 0 1 214.569 19h-4.213a.279.279 0 0 1-.281-.277V7.721a.279.279 0 0 1 .281-.277h4.213a3.624 3.624 0 0 1 3.627 3.613" transform="translate(-181.969 -1.924)" style="fill:#17a2ff"/>
        <path data-name="패스 7" d="M263.3 13.713a2.914 2.914 0 0 0-2.884-2.921h-10.435a.277.277 0 0 1-.277-.277V8.062a.277.277 0 0 1 .277-.277h7.253a.277.277 0 0 1 .276.277V9.54h5.79V7.221a5.273 5.273 0 0 0-5.236-5.3h-8.9a5.273 5.273 0 0 0-5.236 5.3v6.5a2.914 2.914 0 0 0 2.732 2.909h10.563a.278.278 0 0 1 .277.277v2.453a.278.278 0 0 1-.277.278h-7.253a.278.278 0 0 1-.277-.278v-1.479h-5.765v1.346a5.273 5.273 0 0 0 5.236 5.3h8.9a5.273 5.273 0 0 0 5.236-5.3v-5.4z" transform="translate(-198.965 -1.924)" style="fill:#050605"/>
        <path data-name="패스 8" d="M297.2 1.924h-9.319a5.175 5.175 0 0 0-5.026 5.3v17.3h5.228V16.78a.279.279 0 0 1 .277-.28h8.359a.279.279 0 0 1 .277.28v7.744h5.228V7.226a5.175 5.175 0 0 0-5.026-5.3m-.2 5.931v3.052a.279.279 0 0 1-.277.28h-8.359a.279.279 0 0 1-.277-.28V7.855a.279.279 0 0 1 .277-.28h8.359a.279.279 0 0 1 .277.28" transform="translate(-215.723 -1.924)" style="fill:#050605"/>
        <path data-name="패스 9" d="m334.095 1.924-3.636 10.826-3.634-10.826h-6.051l6.944 20.683a2.918 2.918 0 0 0 5.482 0l6.945-20.684z" transform="translate(-232.049 -1.924)" style="fill:#050605"/>
        <path data-name="패스 10" d="M365.139 7.478h13.471V1.924h-16.339a3.048 3.048 0 0 0-3.032 3.058v16.484a3.048 3.048 0 0 0 3.032 3.058h16.339v-5.555h-13.471a.273.273 0 0 1-.271-.274v-2.972h12.285v-5h-12.285v-2.97a.273.273 0 0 1 .271-.274" transform="translate(-248.61 -1.924)" style="fill:#050605"/>
    </g>
</svg>
